<?xml version="1.0" standalone="no"?>
<!DOCTYPE svg PUBLIC "-//W3C//DTD SVG 20010904//EN"
 "http://www.w3.org/TR/2001/REC-SVG-20010904/DTD/svg10.dtd">
<svg version="1.0" xmlns="http://www.w3.org/2000/svg"
 width="297.000000pt" height="253.000000pt" viewBox="0 0 297.000000 253.000000"
 preserveAspectRatio="xMidYMid meet">
<metadata>
Created by potrace 1.16, written by Peter Selinger 2001-2019
</metadata>
<g transform="translate(0.000000,253.000000) scale(0.100000,-0.100000)"
fill="#000000" stroke="none">
<path d="M958 1610 c-80 -24 -132 -82 -144 -158 -5 -35 -3 -45 12 -57 17 -12
20 -10 31 28 7 23 21 52 31 65 l18 23 64 -64 c69 -67 114 -93 169 -99 31 -3
35 0 43 27 11 41 1 102 -27 150 -37 65 -132 106 -197 85z"/>
<path d="M1908 1610 c-101 -30 -155 -146 -114 -244 13 -31 12 -38 -10 -83 -44
-89 -27 -117 78 -128 l66 -6 -8 -30 c-10 -33 -10 -33 48 -48 31 -9 53 -9 83
-1 39 11 41 13 37 45 l-4 34 55 3 c46 2 57 7 67 25 6 13 18 31 27 41 28 30 22
70 -13 90 -19 11 -30 25 -30 39 0 12 -11 30 -25 41 -16 13 -25 30 -25 48 -1
72 -65 153 -138 174 -42 11 -56 11 -94 0z"/>
<path d="M824 1166 l-19 -91 -45 -11 c-51 -13 -77 -25 -235 -113 -60 -34 -115
-61 -121 -61 -6 0 -46 54 -89 120 l-77 119 -30 -15 c-20 -10 -28 -20 -24 -30
3 -9 6 -18 6 -20 0 -3 4 -2 10 1 5 3 7 0 4 -9 -3 -8 20 -71 50 -141 31 -69 56
-129 56 -134 0 -15 46 -51 66 -51 10 0 38 7 62 15 66 23 274 76 279 71 2 -2
-5 -78 -16 -168 l-20 -163 61 -58 c107 -100 265 -193 413 -240 163 -53 441
-61 612 -18 86 21 221 79 189 80 -14 1 -17 6 -12 24 3 13 8 48 12 78 l6 56
-58 6 c-39 4 -61 2 -65 -5 -4 -6 -10 -42 -14 -79 -4 -41 -12 -70 -20 -73 -21
-8 -57 6 -134 49 -70 40 -71 40 -71 82 0 23 5 45 10 48 6 4 10 -6 10 -22 1
-48 19 -2 26 65 6 53 4 64 -17 93 -13 19 -54 83 -90 144 -53 89 -70 110 -87
108 -17 -2 -30 12 -62 67 -38 65 -42 69 -66 60 -33 -13 -31 -14 -39 18 -8 35
-43 72 -67 72 -38 0 -58 19 -58 56 0 45 -30 164 -41 164 -5 0 -15 -13 -24 -30
-8 -16 -29 -40 -45 -52 -34 -25 -36 -34 -13 -60 16 -18 15 -21 -5 -64 -25 -52
-28 -91 -8 -113 13 -14 13 -53 6 -256 -5 -132 -9 -257 -10 -277 l0 -38 -76 0
-77 0 4 363 c4 327 6 364 22 381 24 27 22 37 -16 93 l-33 50 -20 -91z m612
-479 c55 -62 109 -125 120 -140 15 -19 28 -25 40 -21 11 3 15 2 8 -3 -23 -19
-37 -74 -30 -128 6 -50 4 -55 -13 -55 -11 0 -23 5 -27 11 -4 8 -33 10 -84 7
l-76 -4 12 90 c12 89 12 91 -22 215 -34 124 -38 141 -30 141 2 0 48 -51 102
-113z"/>
<path d="M2415 654 c-5 -1 -35 -10 -66 -18 l-56 -16 -27 -91 c-15 -50 -26 -93
-23 -95 5 -5 121 117 161 169 27 35 32 57 11 51z"/>
</g>
</svg>
